<svg xmlns="http://www.w3.org/2000/svg" viewBox="0 0 512 512">
  <rect width="512" height="512" rx="96" fill="#204e4a"/>
  <circle cx="256" cy="256" r="168" fill="#f6f4ef"/>
  <path d="M256 112c54 54 82 102 82 144s-37 82-82 82-82-37-82-82 28-90 82-144Z" fill="#226b55"/>
  <path d="M256 338c-52-44-95-64-142-56 34 73 95 106 142 56Z" fill="#a76714"/>
  <path d="M256 338c52-44 95-64 142-56-34 73-95 106-142 56Z" fill="#244f8f"/>
  <path d="M256 166v196" stroke="#f6f4ef" stroke-width="24" stroke-linecap="round"/>
  <circle cx="256" cy="256" r="28" fill="#f6f4ef"/>
</svg>
